<?xml version="1.0" encoding="UTF-8" standalone="no"?>
<!-- Generator: Adobe Illustrator 18.1.1, SVG Export Plug-In . SVG Version: 6.00 Build 0)  -->
<!DOCTYPE svg  PUBLIC '-//W3C//DTD SVG 1.1//EN'  'http://www.w3.org/Graphics/SVG/1.1/DTD/svg11.dtd'>
<svg id="レイヤー_1" xmlns="http://www.w3.org/2000/svg" xml:space="preserve" viewBox="0 0 398.8 170" version="1.1" y="0px" x="0px" xmlns:xlink="http://www.w3.org/1999/xlink" enable-background="new 0 0 398.8 170">
<g fill="#C54522">
	<path d="m37.2 8.7c-0.9-1.3-0.7-3 0.3-4 0.2-0.3 0.3-0.6 0.1-1l-1.5-2.8c-0.2-0.5-0.8-0.6-1.2-0.3l-34.2 24.1c-0.4 0.3-0.5 0.9-0.1 1.3l29.7 33.8c0.3 0.3 0.8 0.4 1.1 0.1l25.5-18.1c0.3-0.2 0.5-0.7 0.3-1.1l-16-30.4c-0.2-0.3-0.5-0.5-0.9-0.4-1.2 0.2-2.4-0.2-3.1-1.2zm2.7 15.6c0.4-0.3 1-0.2 1.3 0.2s0.2 1-0.2 1.3-1 0.2-1.3-0.2-0.2-1 0.2-1.3zm-30.7 6.2c-0.7 0.5-1.7 0.3-2.3-0.4-0.5-0.7-0.3-1.7 0.4-2.3 0.7-0.5 1.7-0.3 2.2 0.4 0.6 0.8 0.4 1.8-0.3 2.3zm22.8 23.8c-0.7 0.5-1.7 0.3-2.3-0.4-0.5-0.7-0.3-1.7 0.4-2.3 0.7-0.5 1.7-0.3 2.3 0.4 0.5 0.8 0.3 1.8-0.4 2.3zm-15.2-21.3c-1.5 1-3.5 0.7-4.5-0.8s-0.7-3.5 0.8-4.5 3.5-0.7 4.5 0.8c1.1 1.4 0.7 3.4-0.8 4.5zm30.7 4.3c-1.4 1-3.4 0.7-4.4-0.8-1-1.4-0.7-3.4 0.8-4.4 1.4-1 3.4-0.7 4.4 0.8 1 1.4 0.7 3.3-0.8 4.4zm-2.2-8.7c-0.9 0.6-2 0.4-2.7-0.5-0.6-0.9-0.4-2 0.5-2.7 0.9-0.6 2-0.4 2.7 0.5 0.6 0.9 0.4 2.1-0.5 2.7z"/>
	<path d="m96.3 30.5c-0.2-0.5-15.7 11.8-15.7 11.8l4.5-11.9-8.9 7.3-2.7-7.6-2.3 13.4s-4.8 8.6-4.9 8.6c-0.1-0.1 9.6-0.1 9.6-0.1l8.8 8.9-3.7-10 8.3 4-4.1-6 12.5-5-13.3 1.6 11.9-15z"/>
		<path d="m114.2 126.4v41.3h-9.3l-8.4-11.5c-3.8-5.2-9.3-13-9.4-13h-0.1c-0.1 0 0.1 6.4 0.1 15.4v9.1h-9.9v-41.3h9.3l8.8 11.8c2.7 3.5 9 12.4 9 12.4h0.1c0.1 0-0.1-7.3-0.1-14.8v-9.4h9.9z"/>
		<path d="m135.8 126.4c10.1 0 16.3 5.3 16.3 14.2s-6.1 14.2-16.3 14.2h-5.8v13h-10v-41.3h15.8zm-0.2 19c3.8 0 6.1-1.8 6.1-4.9s-2.3-4.9-6.1-4.9h-5.7v9.8h5.7z"/>
		<path d="m185.8 158.4v9.3h-29.4v-41.3h9.9v32h19.5z"/>
		<path d="m226.1 126.4v22.9c0 12.4-7.3 19.2-18.2 19.2-11 0-18.2-6.8-18.2-19.2v-22.9h9.9v22.7c0 7.1 2.9 10.1 8.3 10.1s8.3-3.1 8.3-10.1v-22.7h9.9z"/>
		<path d="m263.8 164.3c-2.4 2.6-7.1 4.2-11.2 4.2-11.9 0-21.4-9-21.4-21.5 0-12.4 9.6-21.5 21.4-21.5 8 0 15 4.2 18.8 11l-10.1 2.7c-1.9-2.4-5.4-3.8-8.7-3.8-6.8 0-11.1 4.9-11.1 11.7 0 7.3 4.9 11.8 11.7 11.8 6.6 0 9.5-3.4 10.7-6.5v-0.1h-10.9v-8h19.3v23.4h-8.5v-3.4z"/>
		<path d="m309.6 164.3c-2.4 2.6-7.1 4.2-11.2 4.2-11.9 0-21.4-9-21.4-21.5 0-12.4 9.6-21.5 21.4-21.5 8 0 15 4.2 18.8 11l-10.1 2.7c-1.9-2.4-5.4-3.8-8.7-3.8-6.8 0-11.1 4.9-11.1 11.7 0 7.3 4.9 11.8 11.7 11.8 6.6 0 9.5-3.4 10.7-6.5v-0.1h-10.9v-8h19.3v23.4h-8.5c0-2.7 0.1-3.3 0-3.4z"/>
		<path d="m354.1 158.4v9.3h-30.4v-41.3h30v9.3h-20.1v6.8h15.7v8.7h-15.7v7.3h20.5z"/>
		<path d="m377.5 126.4c11.8 0 21.3 8.4 21.3 20.8s-9.6 20.5-21.3 20.5h-18v-41.3h18zm0 32c5.9 0 11-4.1 11-11.2s-5.1-11.6-11-11.6h-8.1v22.8h8.1z"/>
	<path d="m69.6 70.5l1.7-1.4c0.4-0.3 0.6-0.8 0.6-1.3v-1.2c0-0.4-0.1-0.8-0.4-1.1-0.4-0.5-1.5-1.5-3.4-2.2-3-1.1-4 2.8-4 2.8s-2.1 4.9-0.4 5.5c4.3 1.6 3.8 5.1 3.8 5.1s0 31.9 0 56.5l-6-26.4-13.7 3.1 6.9 30.4c2.3 9.9-1.2 12.1-4.5 12.8-0.7 0.2-1.3 0.2-1.9 0.2-1.3 0-5.4 0-7.7-9.8l-6.9-30.4-9.3 2.1v-38.6s-0.5-3.4 3.8-5.1c1.7-0.6-0.4-5.5-0.4-5.5s-1.1-3.9-4-2.8c-1.9 0.7-2.9 1.7-3.4 2.3-0.2 0.3-0.4 0.7-0.4 1.1v1.2c0 0.5 0.2 1 0.6 1.3l1.7 1.4s-3 1.7-3 4.9v86.6s0 7.4 3.6 7.6c2.6 0.1 43.4 0.1 46 0 3.6-0.2 3.6-7.6 3.6-7.6v-86.6c0.1-3.1-2.9-4.9-2.9-4.9zm-45.2 90.8v-26.1l2.7 11.7c1.9 8.4 5.5 14.6 10.4 18.2h-11.2s-1.9-0.1-1.9-3.8zm41.2 3.8h-4.7c2.9-2 5.1-4.6 6.6-7.9v4.1c0.1 3.7-1.9 3.8-1.9 3.8z"/>
</g>
</svg>
